<?xml version="1.0" encoding="utf-8"?>
<!-- Generator: Adobe Illustrator 24.0.1, SVG Export Plug-In . SVG Version: 6.00 Build 0)  -->
<svg version="1.1" id="logo" xmlns="http://www.w3.org/2000/svg" xmlns:xlink="http://www.w3.org/1999/xlink" x="0px" y="0px"
	 viewBox="0 0 1920 1080" style="enable-background:new 0 0 1920 1080;" xml:space="preserve">
<style type="text/css">
	.st0{fill:none;stroke:#15FFD4;stroke-width:5;stroke-miterlimit:10;}
	.st1{fill:none;stroke:#E0017A;stroke-width:5;stroke-miterlimit:10;}
</style>
<g>
	<path id="R" class="st0" d="M1074.1,425.3c0-2-1.7-3.5-3.8-3.5h-91.4c-2.1,0-3.8,1.6-3.8,3.5l-0.2,20.9l0.2,61.1l0,11.9v135.6
		c0,1.5,1,2.8,2.5,3.3c0.4,0.1,0.9,0.2,1.3,0.2c1.2,0,2.3-0.5,3-1.3l24.1-28.2c0.5-0.6,0.8-1.4,0.8-2.2V524.8l22.1,25.9v40.9
		c0,1.5,1,2.8,2.5,3.3c1.6,0.5,3.3,0.1,4.3-1.1l24.1-28.2c0.5-0.6,0.8-1.4,0.8-2.2v-21.1c0-0.8-0.3-1.6-0.8-2.2l-16-18.8h30.3
		L1074.1,425.3z M1005.8,453.3l35.4,0l0.2,46.6h-35.6V453.3z"/>
	<path id="T" class="st1" d="M954.9,422.1H849.8c-1,0-2,0.4-2.7,1.1c-0.7,0.7-1.1,1.6-1.1,2.6l0.1,22.9c0,2,1.7,3.6,3.8,3.6h36.7
		l0,128.8c0,0.8,0.3,1.6,0.8,2.2l24.1,30.4c0.7,0.9,1.9,1.5,3,1.5c0.4,0,0.8-0.1,1.2-0.2c1.6-0.5,2.6-1.9,2.6-3.5l0-159.2h36.5
		c2.1,0,3.8-1.6,3.8-3.6v-22.9C958.7,423.8,957,422.1,954.9,422.1z"/>
</g>
</svg>
